<?xml version="1.0" encoding="utf-8"?>
<svg viewBox="0 0 193 58" fill="none" xmlns="http://www.w3.org/2000/svg" xmlns:xlink="http://www.w3.org/1999/xlink" version="1.1">
<mask id="mask0_3_452" style="mask-type:luminance" maskUnits="userSpaceOnUse" x="0" y="4" width="193" height="53">
<path d="M193 4H0V57H193V4Z" fill="white"/>
</mask>
<g mask="url(#mask0_3_452)">
<path d="M193 6.97692C193 7.85452 192.342 8.5457 191.487 8.5457C190.632 8.5457 189.965 7.85452 189.965 6.97692C189.965 6.09933 190.641 5.42822 191.487 5.42822C192.333 5.42822 193 6.11653 193 6.97692ZM190.343 6.97692C190.343 7.66524 190.828 8.21589 191.495 8.21589C192.163 8.21589 192.623 7.6681 192.623 6.9884C192.623 6.30869 192.146 5.74083 191.487 5.74083C190.828 5.74083 190.343 6.29722 190.343 6.97979M191.254 7.79143H190.91V6.23986C191.047 6.21118 191.234 6.19397 191.478 6.19397C191.757 6.19397 191.884 6.23986 191.992 6.30869C192.072 6.37465 192.137 6.49797 192.137 6.64998C192.137 6.81919 192.012 6.95111 191.831 7.00847V7.02855C191.975 7.08591 192.055 7.19776 192.1 7.40712C192.146 7.64229 192.171 7.73694 192.208 7.79429H191.839C191.794 7.73694 191.768 7.5964 191.723 7.41572C191.694 7.24651 191.606 7.16908 191.416 7.16908H191.254V7.79143ZM191.263 6.91383H191.424C191.615 6.91383 191.768 6.84787 191.768 6.68726C191.768 6.54673 191.669 6.45209 191.453 6.45209C191.362 6.45209 191.3 6.46069 191.263 6.47216V6.9167V6.91383Z" fill="white"/>
<path d="M29.2688 11.9385V33.8154H20.1249V23.2412H9.14382V33.8154H0V5.12711H9.14382V15.6611H20.1249V4H21.701C25.881 4 29.2688 7.55341 29.2688 11.9385Z" fill="white"/>
<path d="M51.1116 30.9042H41.2664L40.5252 33.8152H31.0293L38.9975 5.12695H53.3777L61.3487 33.8152H51.8528L51.1088 30.9042H51.1116ZM49.1579 23.241L46.5 12.7099H45.8752L43.2173 23.241H49.1579Z" fill="white"/>
<path d="M63.1064 5.12695H72.3667L78.5033 14.2241H78.8156L84.9494 5.12695H94.2096V33.8152H85.0658V18.8158H84.833L78.8156 27.1357H78.5033L72.486 18.8158H72.2503V33.8152H63.1064V5.12695Z" fill="white"/>
<path d="M97.7285 5.12695H106.989L113.123 14.2241H113.435L119.571 5.12695H128.832V33.8152H119.688V18.8158H119.452L113.435 27.1357H113.123L107.105 18.8158H106.872V33.8152H97.7285V5.12695Z" fill="white"/>
<path d="M141.883 12.6668V15.6581H156.888V23.241H141.883V26.2725H156.888V33.8152H132.739V5.12695H156.888V12.6668H141.883Z" fill="white"/>
<path d="M173.846 23.2009H169.547V33.8152H160.403V5.12695H179.744C185.293 5.12695 188.653 8.48821 188.653 14.2241C188.653 18.0357 186.23 21.1101 182.987 22.4609L189.553 33.8123H179.628L173.844 23.198L173.846 23.2009ZM169.547 15.7011H178.026C178.887 15.7011 179.512 15.0874 179.512 14.1438C179.512 13.12 178.887 12.6697 178.026 12.6697H169.547V15.7011Z" fill="white"/>
<path d="M2.25472 56.4352C1.55331 56.0595 1.00241 55.5347 0.602016 54.8636C0.201618 54.1896 0 53.4296 0 52.5807C0 51.7318 0.201618 50.9689 0.602016 50.2978C1.00241 49.6267 1.55331 49.1018 2.25472 48.7261C2.95612 48.3504 3.7484 48.1611 4.62871 48.1611C5.39826 48.1611 6.09115 48.2988 6.7102 48.5741C7.32642 48.8494 7.8404 49.2452 8.24932 49.7643L6.73292 51.1496C6.1877 50.4842 5.52605 50.1544 4.74797 50.1544C4.29078 50.1544 3.88471 50.2548 3.5269 50.4584C3.1691 50.662 2.89365 50.9459 2.69771 51.3159C2.50177 51.683 2.40238 52.1075 2.40238 52.5864C2.40238 53.0654 2.49893 53.4869 2.69771 53.854C2.89365 54.224 3.17194 54.5079 3.5269 54.7087C3.88471 54.9123 4.29078 55.0127 4.74797 55.0127C5.52605 55.0127 6.1877 54.68 6.73292 54.0175L8.24932 55.4027C7.8404 55.9218 7.32642 56.3176 6.7102 56.593C6.09399 56.8683 5.39826 57.0059 4.62871 57.0059C3.74556 57.0059 2.95612 56.8167 2.25472 56.441" fill="white"/>
<path d="M31.0269 54.5708H29.7292V56.8307H27.3467V48.3301H31.1945C31.9555 48.3301 32.6172 48.4591 33.1794 48.7115C33.7417 48.9668 34.1733 49.331 34.4772 49.8042C34.781 50.2774 34.9343 50.8338 34.9343 51.4734C34.9343 52.1129 34.7924 52.6234 34.5084 53.0823C34.2244 53.5383 33.8155 53.8968 33.2873 54.1578L35.1047 56.8307H32.5547L31.0269 54.5708ZM32.1571 50.5499C31.9072 50.3319 31.5381 50.2229 31.0496 50.2229H29.7263V52.7123H31.0496C31.5381 52.7123 31.9072 52.6062 32.1571 52.3911C32.4042 52.176 32.5291 51.872 32.5291 51.4734C32.5291 51.0747 32.4042 50.7678 32.1571 50.5499Z" fill="white"/>
<path d="M56.6402 53.4178V54.9722H61.0417V56.8307H54.2832V48.3271H60.8855V50.1856H56.6402V51.6196H60.38V53.4178H56.6402Z" fill="white"/>
<path d="M86.0432 55.1788H82.4822L81.8205 56.8307H79.3926L83.1097 48.3301H85.4553L89.1839 56.8307H86.7076L86.046 55.1788H86.0432ZM85.3446 53.4064L84.2627 50.6847L83.1807 53.4064H85.3446Z" fill="white"/>
<path d="M109.266 50.2343H106.679V48.3271H114.221V50.2343H111.648V56.8307H109.266V50.2343Z" fill="white"/>
<path d="M135.53 48.3271H133.147V56.8278H135.53V48.3271Z" fill="white"/>
<path d="M163.777 48.3271L160.17 56.8307H157.825L154.229 48.3271H156.802L159.088 53.8652L161.42 48.3271H163.777Z" fill="white"/>
<path d="M189.067 54.9722V56.8307H182.309V48.3271H188.911V50.1856H184.666V51.6196H188.408V53.4178H184.666V54.9722H189.067Z" fill="white"/>
</g>
</svg>
